<?xml version="1.0" encoding="utf-8"?>
<!-- Generator: Adobe Illustrator 23.0.1, SVG Export Plug-In . SVG Version: 6.00 Build 0)  -->
<svg version="1.1" id="Layer_1" xmlns="http://www.w3.org/2000/svg" xmlns:xlink="http://www.w3.org/1999/xlink" x="0px" y="0px"
	 viewBox="0 0 125 22.7" style="enable-background:new 0 0 125 22.7;" xml:space="preserve">
<style type="text/css">
	.st0{fill:#4682A9;}
</style>
<title>Krikstudio ticketing logo</title>
<desc>Created with Sketch.</desc>
<path id="Fill-1" class="st0" d="M122.5,14.4c0,0.9-0.1,1.7-0.3,2.5c-0.2,0.8-0.5,1.5-0.9,2.1c-0.4,0.6-1,1.1-1.7,1.5
	c-0.7,0.4-1.5,0.6-2.4,0.6c-0.9,0-1.6-0.2-2.3-0.5c-0.7-0.3-1.2-0.8-1.7-1.4c-0.4-0.6-0.8-1.3-1-2.1c-0.2-0.8-0.3-1.7-0.3-2.7
	c0-0.9,0.1-1.7,0.3-2.5c0.2-0.8,0.5-1.5,0.9-2.1c0.4-0.6,1-1.1,1.7-1.5c0.7-0.4,1.5-0.6,2.5-0.6c1,0,1.8,0.2,2.5,0.5
	c0.7,0.3,1.2,0.8,1.6,1.4c0.4,0.6,0.7,1.3,0.9,2.1C122.4,12.6,122.5,13.5,122.5,14.4L122.5,14.4z M117.1,22.7c1.1,0,2.1-0.2,3-0.6
	c0.9-0.4,1.7-1,2.3-1.7c0.6-0.7,1.1-1.6,1.5-2.6c0.3-1,0.5-2.1,0.5-3.4c0-1.2-0.1-2.2-0.4-3.3c-0.3-1-0.7-1.9-1.4-2.6
	c-0.6-0.7-1.4-1.3-2.3-1.8c-0.9-0.4-2-0.7-3.2-0.7c-1.2,0-2.3,0.2-3.2,0.7c-0.9,0.4-1.7,1-2.3,1.8c-0.6,0.7-1.1,1.6-1.4,2.6
	c-0.3,1-0.5,2.1-0.5,3.2c0,1.4,0.2,2.6,0.6,3.6c0.4,1,0.9,1.9,1.6,2.6c0.7,0.7,1.4,1.2,2.3,1.6C115.2,22.5,116.1,22.7,117.1,22.7
	L117.1,22.7z M105.9,22.3h1.8V6.5h-1.8V22.3z M105.8,3.1h2V0.4h-2V3.1z M101.7,14.3c0,1-0.1,1.8-0.3,2.7c-0.2,0.8-0.6,1.5-1,2.1
	c-0.4,0.6-1,1.1-1.7,1.4c-0.7,0.3-1.4,0.5-2.3,0.5c-0.8,0-1.5-0.1-2.1-0.4c-0.7-0.3-1.2-0.7-1.7-1.2c-0.5-0.5-0.9-1.2-1.1-1.9
	c-0.3-0.8-0.4-1.6-0.4-2.6c0-1,0-1.9,0.2-2.8c0.2-0.9,0.5-1.6,1-2.3c0.4-0.6,1-1.2,1.7-1.5c0.7-0.4,1.5-0.6,2.5-0.6
	c0.8,0,1.6,0.2,2.2,0.5c0.7,0.4,1.2,0.8,1.7,1.4c0.5,0.6,0.8,1.3,1,2.1C101.5,12.6,101.7,13.4,101.7,14.3L101.7,14.3z M101.7,9
	c-0.6-1-1.4-1.7-2.4-2.2c-1-0.5-2.1-0.7-3.2-0.7c-1.2,0-2.2,0.2-3.1,0.7c-0.9,0.5-1.6,1.1-2.2,1.8c-0.6,0.8-1,1.7-1.3,2.7
	c-0.3,1-0.4,2.1-0.4,3.2c0,1.2,0.1,2.2,0.4,3.3c0.3,1,0.7,1.9,1.3,2.6c0.6,0.7,1.3,1.3,2.2,1.7c0.9,0.4,2,0.6,3.3,0.6
	c0.5,0,1-0.1,1.6-0.2c0.5-0.1,1-0.3,1.5-0.6c0.5-0.3,1-0.6,1.4-1c0.4-0.4,0.8-0.9,1-1.4h0.1v2.8h1.8V0.4h-1.8L101.7,9L101.7,9z
	 M85,15.1c0,0.9-0.1,1.7-0.3,2.4c-0.2,0.7-0.5,1.4-0.9,1.9s-0.9,0.9-1.5,1.2c-0.6,0.3-1.3,0.4-2,0.4c-1.4,0-2.5-0.4-3.1-1.1
	c-0.6-0.7-0.9-1.8-0.9-3.1V6.5h-1.8v10.4c0,0.8,0.1,1.6,0.3,2.3c0.2,0.7,0.5,1.3,0.9,1.8c0.4,0.5,1,0.9,1.7,1.2
	c0.7,0.3,1.6,0.4,2.7,0.4c0.7,0,1.3-0.1,1.8-0.3c0.5-0.2,1-0.4,1.4-0.6c0.4-0.3,0.7-0.5,1-0.8c0.3-0.3,0.6-0.6,0.8-0.9v2.2h1.8V6.5
	H85L85,15.1L85,15.1z M72.2,20.8c-0.2,0.1-0.5,0.1-0.7,0.2c-0.3,0-0.5,0.1-0.7,0.1c-0.4,0-0.7,0-0.9-0.1c-0.2-0.1-0.4-0.2-0.5-0.4
	c-0.1-0.2-0.2-0.4-0.2-0.7c0-0.3,0-0.6,0-1V8H72V6.5h-2.9V2.1h-1.8v4.4H65V8h2.2v11.5c0,1.2,0.2,2,0.7,2.4c0.5,0.5,1.2,0.7,2.1,0.7
	c0.4,0,0.9-0.1,1.2-0.2c0.4-0.1,0.7-0.2,0.9-0.2L72.2,20.8L72.2,20.8z M51.6,17.3c0,0.8,0.2,1.5,0.5,2.1c0.3,0.6,0.7,1.2,1.2,1.7
	s1.1,0.9,1.8,1.1c0.7,0.3,1.5,0.4,2.5,0.4c0.9,0,1.8-0.1,2.6-0.3c0.8-0.2,1.5-0.5,2-0.9c0.6-0.4,1-0.9,1.3-1.4
	c0.3-0.6,0.5-1.2,0.5-2c0-1-0.2-1.8-0.7-2.4c-0.5-0.6-1.1-1-1.9-1.4c-0.7-0.3-1.6-0.6-2.4-0.8c-0.9-0.2-1.7-0.4-2.4-0.6
	c-0.8-0.2-1.4-0.5-1.9-0.9c-0.5-0.4-0.7-0.9-0.7-1.6c0-0.8,0.3-1.5,0.9-2c0.6-0.5,1.5-0.7,2.6-0.7c1.2,0,2.1,0.3,2.9,0.7
	c0.8,0.5,1.2,1.4,1.4,2.6h1.9c-0.2-1.8-0.9-3.1-1.9-3.8s-2.4-1.1-4.2-1.1c-1.8,0-3.1,0.4-4.1,1.3c-1,0.8-1.4,1.9-1.4,3.2
	c0,1,0.2,1.8,0.7,2.4c0.5,0.6,1.1,1,1.9,1.3c0.7,0.3,1.6,0.5,2.4,0.7c0.9,0.1,1.7,0.3,2.4,0.5c0.7,0.2,1.4,0.5,1.9,0.9
	c0.5,0.4,0.7,0.9,0.7,1.7c0,0.4-0.1,0.8-0.2,1.1c-0.2,0.3-0.4,0.7-0.7,0.9c-0.3,0.3-0.7,0.5-1.2,0.7c-0.5,0.2-1.1,0.2-1.7,0.2
	c-1.4,0-2.4-0.3-3.2-0.8c-0.7-0.6-1.3-1.5-1.5-2.9L51.6,17.3L51.6,17.3z M36.2,22.3h4.2v-5.1l1.8-1.8l3.9,6.9h5.2l-6-10.1l5.8-6
	h-5.3l-5.3,6.1V0.5h-4.2C36.2,0.5,36.2,22.3,36.2,22.3z M29.1,22.3h4.3V6.1h-4.3V22.3z M29.1,4.2h4.3V0.2h-4.3
	C29.1,0.2,29.1,4.2,29.1,4.2z M26.5,5.7c-0.1,0-0.1,0-0.2,0c-1.3,0-2.3,0.3-3.1,1c-0.5,0.4-1.1,1.1-1.7,2.2V6.1h-4v16.2h4.3v-7.7
	c0-1.3,0.2-2.3,0.5-2.9c0.6-1.1,1.7-1.7,3.4-1.7c0.1,0,0.3,0,0.5,0c0.2,0,0.4,0,0.7,0.1V5.7C26.6,5.7,26.5,5.7,26.5,5.7L26.5,5.7z
	 M1,0.5h4.2v11.8l5.3-6.1h5.3l-5.8,6l6,10.1h-5.2l-3.9-6.9l-1.8,1.8v5.1H1V0.5z"/>
</svg>
