<?xml version="1.0" encoding="utf-8"?>
<!-- Generator: Adobe Illustrator 17.0.0, SVG Export Plug-In . SVG Version: 6.00 Build 0)  -->
<!DOCTYPE svg PUBLIC "-//W3C//DTD SVG 1.1//EN" "http://www.w3.org/Graphics/SVG/1.1/DTD/svg11.dtd">
<svg version="1.1" id="Layer_1" xmlns="http://www.w3.org/2000/svg" xmlns:xlink="http://www.w3.org/1999/xlink" x="0px" y="0px"
	 width="125px" height="22.704px" viewBox="0 0 125 22.704" enable-background="new 0 0 125 22.704" xml:space="preserve">
<title>Krikstudio ticketing logo</title>
<desc>Created with Sketch.</desc>
<path id="Fill-1" fill="#FEFEFE" d="M122.481,14.395c0,0.854-0.099,1.674-0.302,2.464c-0.203,0.794-0.518,1.501-0.946,2.133
	c-0.424,0.627-0.978,1.128-1.654,1.502c-0.682,0.376-1.499,0.565-2.45,0.565c-0.874,0-1.645-0.162-2.314-0.49
	c-0.67-0.322-1.227-0.778-1.674-1.368c-0.446-0.586-0.786-1.29-1.018-2.114c-0.235-0.821-0.35-1.718-0.35-2.693
	c0-0.851,0.101-1.677,0.302-2.477c0.205-0.802,0.518-1.514,0.944-2.13c0.427-0.619,0.981-1.117,1.658-1.491
	c0.68-0.376,1.498-0.566,2.451-0.566c0.973,0,1.794,0.176,2.462,0.52c0.67,0.344,1.218,0.816,1.642,1.414
	c0.427,0.598,0.742,1.304,0.946,2.115C122.382,12.592,122.481,13.462,122.481,14.395L122.481,14.395z M117.129,22.701
	c1.094,0,2.091-0.197,2.997-0.594c0.901-0.395,1.672-0.957,2.309-1.688c0.638-0.728,1.133-1.603,1.478-2.616
	c0.344-1.013,0.515-2.147,0.515-3.408c0-1.157-0.147-2.238-0.442-3.256c-0.294-1.013-0.744-1.888-1.354-2.632
	c-0.606-0.738-1.368-1.326-2.28-1.76c-0.912-0.437-1.989-0.656-3.224-0.656c-1.216,0-2.282,0.219-3.195,0.656
	c-0.914,0.434-1.672,1.026-2.283,1.778c-0.606,0.749-1.064,1.629-1.37,2.632c-0.302,1.003-0.456,2.082-0.456,3.238
	c0,1.381,0.192,2.587,0.579,3.621c0.386,1.035,0.909,1.898,1.566,2.586c0.658,0.69,1.43,1.206,2.312,1.552
	C115.166,22.497,116.113,22.681,117.129,22.701L117.129,22.701z M105.875,22.275h1.826V6.517h-1.826V22.275z M105.784,3.078h2.008
	V0.373h-2.008V3.078z M101.672,14.334c0,0.954-0.12,1.842-0.35,2.662c-0.237,0.821-0.576,1.533-1.021,2.13
	c-0.443,0.598-1.003,1.07-1.672,1.414c-0.669,0.347-1.43,0.518-2.28,0.518c-0.774,0-1.483-0.136-2.131-0.41
	c-0.65-0.277-1.216-0.677-1.704-1.205c-0.486-0.525-0.869-1.171-1.142-1.93c-0.274-0.762-0.411-1.64-0.411-2.634
	c-0.04-0.994,0.043-1.918,0.245-2.781c0.202-0.862,0.528-1.619,0.971-2.269c0.448-0.648,1.016-1.16,1.706-1.534
	c0.688-0.376,1.512-0.565,2.467-0.565c0.83,0,1.574,0.178,2.235,0.533c0.656,0.357,1.218,0.832,1.672,1.429
	c0.454,0.6,0.806,1.299,1.048,2.101C101.549,12.597,101.672,13.441,101.672,14.334L101.672,14.334z M101.672,9.041
	c-0.59-0.974-1.395-1.709-2.421-2.206c-1.024-0.498-2.094-0.744-3.21-0.744c-1.197,0-2.235,0.229-3.117,0.685
	c-0.883,0.456-1.611,1.066-2.19,1.824c-0.579,0.76-1.01,1.651-1.294,2.662c-0.283,1.013-0.424,2.069-0.424,3.163
	c0,1.158,0.133,2.242,0.394,3.256c0.264,1.016,0.685,1.891,1.264,2.632c0.578,0.741,1.312,1.325,2.205,1.749
	c0.891,0.426,1.978,0.638,3.256,0.638c0.506,0,1.022-0.069,1.55-0.213c0.528-0.142,1.04-0.346,1.538-0.61
	c0.498-0.262,0.952-0.59,1.37-0.987c0.414-0.397,0.754-0.856,1.018-1.384h0.062v2.768h1.824V0.373h-1.824V9.041z M85.006,15.096
	c0,0.874-0.112,1.674-0.334,2.403c-0.222,0.731-0.536,1.358-0.942,1.886s-0.909,0.938-1.506,1.232
	c-0.6,0.296-1.274,0.442-2.022,0.442c-1.442,0-2.477-0.36-3.106-1.08c-0.627-0.72-0.942-1.76-0.942-3.12V6.517h-1.824v10.373
	c0,0.834,0.094,1.598,0.29,2.299c0.19,0.698,0.507,1.312,0.941,1.838c0.437,0.528,1.01,0.939,1.718,1.232
	c0.712,0.293,1.595,0.445,2.65,0.445c0.688,0,1.296-0.09,1.824-0.259c0.526-0.174,0.987-0.387,1.386-0.642
	c0.395-0.253,0.744-0.531,1.048-0.837c0.306-0.302,0.578-0.597,0.821-0.882v2.19h1.826V6.517h-1.826V15.096z M72.153,20.845
	c-0.242,0.061-0.49,0.112-0.746,0.152c-0.253,0.042-0.499,0.062-0.742,0.062c-0.387,0-0.686-0.04-0.899-0.122
	c-0.213-0.08-0.368-0.213-0.47-0.397c-0.101-0.181-0.163-0.416-0.182-0.699c-0.022-0.283-0.03-0.619-0.03-1.003V8.037h2.949v-1.52
	h-2.949V2.134h-1.826v4.382h-2.222v1.52h2.222v11.533c0,1.174,0.237,1.99,0.715,2.448c0.477,0.454,1.17,0.685,2.082,0.685
	c0.446,0,0.854-0.051,1.219-0.152c0.363-0.102,0.659-0.173,0.88-0.213V20.845z M51.611,17.347c0.04,0.75,0.205,1.45,0.486,2.099
	c0.285,0.648,0.68,1.216,1.187,1.704c0.507,0.488,1.12,0.866,1.84,1.138c0.72,0.277,1.547,0.414,2.482,0.414
	c0.933,0,1.789-0.096,2.57-0.29c0.779-0.194,1.454-0.485,2.022-0.869c0.566-0.384,1.013-0.866,1.339-1.443
	c0.323-0.579,0.485-1.242,0.485-1.992c0-1.014-0.246-1.805-0.744-2.374c-0.498-0.566-1.12-1.019-1.872-1.354
	c-0.749-0.334-1.562-0.594-2.434-0.774c-0.872-0.184-1.682-0.39-2.434-0.626c-0.75-0.234-1.373-0.536-1.869-0.912
	c-0.501-0.374-0.747-0.918-0.747-1.626c0-0.814,0.304-1.467,0.912-1.965c0.61-0.496,1.493-0.747,2.646-0.747
	c1.158,0,2.115,0.251,2.875,0.747c0.763,0.498,1.222,1.355,1.384,2.571H63.6c-0.226-1.784-0.869-3.058-1.934-3.818
	s-2.448-1.141-4.152-1.141c-1.763,0-3.128,0.422-4.093,1.262c-0.963,0.84-1.445,1.922-1.445,3.238c0,1.037,0.248,1.837,0.747,2.403
	c0.494,0.57,1.12,1.005,1.87,1.31c0.747,0.304,1.56,0.533,2.432,0.685c0.872,0.15,1.685,0.334,2.435,0.547
	c0.749,0.21,1.373,0.507,1.872,0.882c0.494,0.374,0.742,0.949,0.742,1.718c0,0.386-0.08,0.75-0.242,1.096
	c-0.163,0.346-0.4,0.651-0.714,0.926c-0.315,0.275-0.715,0.494-1.203,0.656c-0.486,0.163-1.064,0.243-1.734,0.243
	c-1.378,0-2.438-0.278-3.178-0.84c-0.741-0.557-1.254-1.512-1.536-2.872H51.611z M36.217,22.275h4.162v-5.094l1.754-1.824
	l3.922,6.918h5.152L45.179,12.19l5.803-6.034H45.72l-5.341,6.107V0.454h-4.162V22.275z M29.113,22.275h4.294V6.085h-4.294V22.275z
	 M29.112,4.153h4.294V0.248h-4.294V4.153z M26.459,5.705c-0.053-0.005-0.12-0.008-0.2-0.008c-1.267,0-2.299,0.333-3.091,0.997
	c-0.485,0.395-1.054,1.133-1.707,2.211V6.083h-4.042v16.192h4.262v-7.741c0-1.296,0.166-2.259,0.491-2.88
	c0.584-1.11,1.73-1.662,3.434-1.662c0.128,0,0.296,0.002,0.502,0.014c0.211,0.01,0.448,0.03,0.714,0.059V5.728
	C26.633,5.72,26.515,5.71,26.459,5.705L26.459,5.705z M1,0.454h4.157v11.81l5.341-6.107h5.264L9.958,12.19l6.029,10.085h-5.152
	L6.91,15.357l-1.754,1.824v5.094H1V0.454z"/>
</svg>
